<svg width="192" height="32" viewBox="0 0 192 32" fill="none" xmlns="http://www.w3.org/2000/svg">
<path d="M52.0527 29.3342V3.20067H60.5742C62.3495 3.20067 64.0085 3.54289 65.5512 4.22735C67.1061 4.89935 68.4712 5.83892 69.6466 7.04604C70.8342 8.24072 71.7586 9.62828 72.4198 11.2087C73.0931 12.7768 73.4298 14.463 73.4298 16.2675C73.4298 18.0719 73.0931 19.7644 72.4198 21.3448C71.7586 22.9129 70.8342 24.3004 69.6466 25.5075C68.4712 26.7022 67.1061 27.6418 65.5512 28.3262C64.0085 28.9982 62.3495 29.3342 60.5742 29.3342H52.0527ZM57.1215 24.1822H60.5742C61.6271 24.1822 62.6189 23.9769 63.5494 23.5662C64.4921 23.1555 65.3247 22.5893 66.047 21.8675C66.7694 21.1457 67.3326 20.3057 67.7366 19.3475C68.1529 18.3893 68.361 17.3626 68.361 16.2675C68.361 15.1723 68.1529 14.1519 67.7366 13.2061C67.3326 12.2479 66.7694 11.4079 66.047 10.6861C65.3369 9.95184 64.5105 9.37939 63.5677 8.96872C62.6372 8.55805 61.6394 8.35272 60.5742 8.35272H57.1215V24.1822Z" fill="white"/>
<path d="M84.1302 29.8196C82.4406 29.8196 80.8979 29.3778 79.5021 28.4942C78.1186 27.6107 77.0106 26.4284 76.178 24.9475C75.3577 23.4542 74.9476 21.8053 74.9476 20.0008C74.9476 18.6319 75.1863 17.3564 75.6638 16.1741C76.1413 14.9794 76.7963 13.9341 77.6289 13.0381C78.4737 12.1296 79.4532 11.4203 80.5673 10.9101C81.6815 10.3998 82.8691 10.1447 84.1302 10.1447C85.8198 10.1447 87.3563 10.5865 88.7398 11.4701C90.1356 12.3536 91.2436 13.5421 92.0639 15.0354C92.8965 16.5288 93.3128 18.1839 93.3128 20.0008C93.3128 21.3573 93.074 22.6266 92.5965 23.8089C92.119 24.9911 91.4579 26.0364 90.6131 26.9449C89.7805 27.8409 88.8072 28.544 87.693 29.0542C86.5911 29.5645 85.4035 29.8196 84.1302 29.8196ZM84.1302 24.6675C84.9137 24.6675 85.6177 24.456 86.2422 24.0329C86.8666 23.5973 87.3563 23.0249 87.7114 22.3155C88.0664 21.6062 88.244 20.8346 88.244 20.0008C88.244 19.1422 88.0542 18.3581 87.6746 17.6488C87.3073 16.927 86.8115 16.3546 86.1871 15.9315C85.5626 15.5083 84.877 15.2968 84.1302 15.2968C83.3588 15.2968 82.6609 15.5146 82.0365 15.9501C81.4121 16.3857 80.9162 16.9581 80.5489 17.6675C80.1939 18.3768 80.0164 19.1546 80.0164 20.0008C80.0164 20.8844 80.2 21.6808 80.5673 22.3902C80.9469 23.0871 81.4488 23.6409 82.0733 24.0515C82.6977 24.4622 83.3833 24.6675 84.1302 24.6675Z" fill="white"/>
<path d="M100.084 29.3342L93.5093 3.20067H98.7434L102.931 19.9075L107.118 3.20067H111.764L115.952 19.9075L120.139 3.20067H125.373L118.835 29.3342H113.105L109.45 14.8114L105.814 29.3342H100.084Z" fill="white"/>
<path d="M146.159 19.8328V29.3342H141.09V19.9075C141.09 19.0239 140.913 18.2213 140.558 17.4995C140.215 16.7777 139.743 16.2052 139.143 15.7821C138.544 15.3466 137.882 15.1288 137.16 15.1288C136.315 15.1288 135.623 15.3466 135.085 15.7821C134.558 16.2052 134.173 16.7777 133.928 17.4995C133.683 18.2213 133.56 19.0239 133.56 19.9075V29.3342H128.455V1.33398H133.524V12.0861C133.928 11.2523 134.479 10.7296 135.177 10.5181C135.887 10.2941 136.725 10.1821 137.693 10.1821C139.419 10.1821 140.907 10.6176 142.155 11.4887C143.416 12.3599 144.39 13.5297 145.075 14.9981C145.773 16.4541 146.134 18.0657 146.159 19.8328Z" fill="white"/>
<path d="M149.833 10.6674H154.902V29.3342H149.833V10.6674ZM152.386 8.14738C151.664 8.14738 151.051 7.89849 150.549 7.40071C150.047 6.90293 149.796 6.28692 149.796 5.55269C149.796 4.81846 150.047 4.20246 150.549 3.70467C151.051 3.20689 151.664 2.958 152.386 2.958C153.108 2.958 153.714 3.20689 154.204 3.70467C154.706 4.20246 154.957 4.81846 154.957 5.55269C154.957 6.28692 154.706 6.90293 154.204 7.40071C153.714 7.89849 153.108 8.14738 152.386 8.14738Z" fill="white"/>
<path d="M171.338 15.8195H168.032V29.3342H162.963V15.8195H160.429V10.6674H162.963V4.80602H168.032V10.6674H171.338V15.8195Z" fill="white"/>
<path d="M192 19.8328V29.3342H186.931V19.9075C186.931 19.0239 186.754 18.2213 186.399 17.4995C186.056 16.7777 185.585 16.2052 184.985 15.7821C184.385 15.3466 183.724 15.1288 183.001 15.1288C182.156 15.1288 181.465 15.3466 180.926 15.7821C180.4 16.2052 180.014 16.7777 179.769 17.4995C179.524 18.2213 179.402 19.0239 179.402 19.9075V29.3342H174.296V1.33398H179.365V12.0861C179.769 11.2523 180.32 10.7296 181.018 10.5181C181.728 10.2941 182.567 10.1821 183.534 10.1821C185.26 10.1821 186.748 10.6176 187.997 11.4887C189.258 12.3599 190.231 13.5297 190.917 14.9981C191.615 16.4541 191.976 18.0657 192 19.8328Z" fill="white"/>
<path d="M39.3541 15.9531V25.8425C39.3541 29.2011 30.5681 32.0001 19.7686 32.0001C8.96911 32.0001 0.366168 29.2945 0.366168 25.9359V24.8164L0.183105 16.9796H0.274548C1.73885 19.8717 9.79279 22.1109 19.4939 22.1109C29.195 22.1109 39.171 19.3121 39.171 15.9533H39.3541V15.9531Z" fill="#CD3C04"/>
<path d="M0.2745 16.979L0.183057 14.9265L0 6.53C0.640622 9.70199 9.15212 12.2209 19.494 12.2209C29.836 12.2209 38.9881 9.51539 39.2626 6.25H39.354V15.9528H39.171C39.171 19.3114 30.2934 22.1103 19.4939 22.1103C8.69456 22.1101 1.73898 19.8712 0.2745 16.979Z" fill="#FA4D0A"/>
<path d="M39.2626 6.06399V6.2506C38.9881 9.51598 30.1105 12.2215 19.494 12.2215C8.87761 12.2215 0.640622 9.70259 0 6.5306V6.06417C0 5.87756 5.53392e-07 5.69095 0.0914429 5.50434C1.09818 2.42556 9.24356 8.83916e-09 19.2194 8.83916e-09H19.4939C30.2935 -0.000178564 39.2626 2.70538 39.2626 6.06399Z" fill="#FC9770"/>
</svg>
